<?xml version="1.0" encoding="utf-8"?>
<!-- Generator: Adobe Illustrator 25.2.0, SVG Export Plug-In . SVG Version: 6.00 Build 0)  -->
<svg version="1.1" id="Layer_1" xmlns="http://www.w3.org/2000/svg" xmlns:xlink="http://www.w3.org/1999/xlink" x="0px" y="0px"
	 viewBox="0 0 150 150" style="enable-background:new 0 0 150 150;" xml:space="preserve">
<style type="text/css">
	.st0{fill:#121212;}
	.st1{fill:#F9F6FB;}
	.st2{fill:#E6E7E8;}
</style>
<polygon class="st0" points="-395.4,42.6 -395.4,107.4 -271.8,107.4 -207.1,42.6 "/>
<polygon class="st1" points="-95.4,42.6 -207.1,42.6 -271.8,107.4 -95.4,107.4 "/>
<path class="st2" d="M-361.4,85.5c-2.3,3.4-6.2,5.5-10.3,5.5c-7.7,0-12.8-5.9-12.8-15s5.1-15,12.8-15c4.2,0,8,2.1,10.3,5.6V50.7h1.8
	v39.5h-1.8V85.5z M-361.4,68.3c-2.2-3.5-6.1-5.7-10.3-5.8c-7,0-10.8,5.9-10.8,13.5s3.9,13.4,10.8,13.4c4.2,0,8-2.2,10.3-5.7V68.3z"
	/>
<path class="st2" d="M-340.5,60.9c8.8,0,13.3,7,13.3,15v0.6h-24.7c0.2,7,4.7,12.8,12,12.8c3.8,0.1,7.4-1.5,10-4.3l1.1,1.1
	c-2.8,3.1-6.8,4.9-11,4.8c-8.3,0-14-6.3-14-15.1C-353.9,67.6-348.2,60.9-340.5,60.9z M-351.9,74.9h22.8c0-5.5-3.6-12.4-11.4-12.4
	C-347.9,62.5-351.7,69.3-351.9,74.9L-351.9,74.9z"/>
<path class="st2" d="M-322.6,85.1c2.2,2.8,5.5,4.4,9.1,4.3c5.3,0,8.5-2.8,8.5-6.6c0-4.2-4.3-5.3-8.7-6.5c-4.7-1.2-9.7-2.5-9.7-7.7
	c0-4.2,3.6-7.6,9.7-7.6c4.9,0,8,2,9.8,4.3l-1.3,1.2c-1.7-2.4-4.7-3.9-8.5-3.9c-5,0-7.9,2.6-7.9,6c0,3.7,4,4.7,8.2,5.8
	c4.9,1.2,10.2,2.6,10.2,8.4c0,4.4-3.3,8.2-10.2,8.2c-4.5,0-7.6-1.3-10.5-4.6L-322.6,85.1z"/>
<path class="st2" d="M-298.4,55c0-0.9,0.8-1.7,1.7-1.7c0.9,0,1.7,0.8,1.7,1.7c0,0.9-0.8,1.7-1.7,1.7C-297.6,56.7-298.4,56-298.4,55z
	 M-297.6,61.6h1.8v28.6h-1.8V61.6z"/>
<path class="st2" d="M-277.3,91.1c4.1-0.1,8-2.2,10.3-5.6v5c0,6.9-4.6,9.8-10.3,9.8c-4.5,0-7.2-1.1-9.7-4.2l-1.3,1.5
	c3.3,3.5,6.2,4.3,11,4.3c6.9,0,12.1-3.2,12.1-11.4V61.6h-1.8v4.9c-2.3-3.5-6.1-5.6-10.3-5.6c-7.7,0-12.8,6.1-12.8,15.1
	S-285,91.1-277.3,91.1z M-277.3,62.5c4.2,0.1,8.1,2.3,10.3,5.8v15.3c-2.2,3.5-6.1,5.7-10.3,5.8c-7,0-10.9-5.9-10.9-13.4
	S-284.3,62.5-277.3,62.5z"/>
<path class="st2" d="M-236.9,70.3c0-6.8-3.3-9.4-8.9-9.4c-4,0-8.2,2.6-10.4,5.2v-4.5h-1.8v28.6h1.8V67.9c2.4-3.2,6.1-5.2,10.1-5.4
	c4.4,0,7.4,1.8,7.4,7.8v4l1.8-1.8V70.3z"/>
<polygon class="st0" points="-238.7,74.3 -238.7,90.3 -236.9,90.3 -236.9,72.5 "/>
<polygon class="st0" points="-226.4,79.4 -227.1,79.4 -227.1,84.3 -231.8,84.3 -231.8,85 -227.1,85 -227.1,90.1 -226.4,90.1 
	-226.4,85 -221.7,85 -221.7,84.3 -226.4,84.3 "/>
<path class="st0" d="M-204.1,62.5c3.3-0.1,6.5,1.5,8.4,4.3l1.3-1.1c-2.4-3-5.1-4.8-9.8-4.8c-8.3,0-13.5,6.8-13.5,15s5.2,15,13.5,15
	c4.7,0,7.3-1.8,9.8-4.8l-1.3-1.1c-1.8,2.8-5,4.4-8.4,4.3c-7.4,0-11.7-6-11.7-13.5S-211.4,62.5-204.1,62.5z"/>
<path class="st0" d="M-178.1,60.9c-8.1,0-13.3,6.6-13.3,15s5.3,15,13.3,15s13.3-6.6,13.3-15.1S-170,60.9-178.1,60.9z M-178.1,89.4
	c-7.3,0-11.4-6.4-11.4-13.4s4.1-13.4,11.4-13.4s11.4,6.5,11.4,13.4C-166.8,82.9-170.8,89.4-178.1,89.4z"/>
<path class="st0" d="M-137.6,85.5c-2.3,3.4-6.2,5.5-10.3,5.5c-7.7,0-12.8-5.9-12.8-15s5.1-15,12.8-15c4.2,0.1,8,2.2,10.3,5.6V50.7
	h1.8v39.5h-1.8V85.5z M-137.6,68.3c-2.3-3.5-6.1-5.7-10.3-5.8c-7,0-10.9,5.9-10.9,13.5s3.9,13.4,10.9,13.4c4.2,0,8-2.2,10.3-5.7
	V68.3z"/>
<path class="st0" d="M-116.7,60.9c8.8,0,13.3,7,13.3,15v0.6h-24.7c0.2,7,4.7,12.8,12,12.8c3.8,0.1,7.4-1.5,10-4.3l1.1,1.1
	c-2.8,3.1-6.8,4.9-11,4.8c-8.3,0-14-6.3-14-15.1C-130.1,67.6-124.3,60.9-116.7,60.9z M-128.1,74.9h22.8c0-5.5-3.6-12.4-11.4-12.4
	C-124.1,62.5-127.9,69.3-128.1,74.9L-128.1,74.9z"/>
<g>
	<g>
		<polygon class="st0" points="0,0 0,150 1.1,150 40.8,110.3 71.6,79.5 150,1.1 150,0 		"/>
		<polygon class="st1" points="71.6,79.5 40.8,110.3 1.1,150 150,150 150,1.1 		"/>
	</g>
	<g>
		<path class="st2" d="M48.9,102.2c5.4-2.1,10.2-5.8,13.6-10.8v11.1h4.1v-18L48.9,102.2z"/>
		<path class="st2" d="M66.6,11h-4.1v36.6c-5.3-8-14.3-12.9-23.9-12.9c-17.8,0-29.6,13.7-29.6,34.7s11.8,34.7,29.6,34.7
			c3.6,0,7.1-0.7,10.3-2l17.7-17.7V11z M62.5,87.3c-5.2,8.1-14.2,13.1-23.9,13.2c-16.2,0-25.1-13.6-25.1-31
			c0-17.4,8.9-31.2,25.1-31.2c9.7,0.2,18.7,5.3,23.9,13.5V87.3z"/>
	</g>
	<polygon class="st0" points="65.6,114.4 63.9,114.4 63.9,125.9 53.2,125.9 53.2,127.5 63.9,127.5 63.9,139.3 65.6,139.3 
		65.6,127.5 76.4,127.5 76.4,125.9 65.6,125.9 	"/>
	<path class="st0" d="M117.2,73.1c7.7-0.3,15.1,3.5,19.3,9.9l3-2.5c-5.6-6.9-11.8-11.1-22.6-11.1c-19.2,0-31.3,15.6-31.3,34.7
		S97.7,139,117,139c10.8,0,17-4.1,22.6-11.1l-3-2.6c-4.3,6.5-11.6,10.2-19.3,10c-17,0-27.1-13.9-27.1-31.2S100.3,73.1,117.2,73.1z"
		/>
</g>
</svg>
